<?xml version="1.0" ?><svg style="enable-background:new 0 0 96 96;" version="1.1" viewBox="0 0 96 96" xml:space="preserve" xmlns="http://www.w3.org/2000/svg" xmlns:xlink="http://www.w3.org/1999/xlink"><style type="text/css">
	.st0{display:none;}
	.st1{display:inline;}
	.st2{fill:none;stroke:#459EDB;stroke-width:2;stroke-linecap:round;stroke-linejoin:round;stroke-miterlimit:10;}
	.st3{display:none;fill:none;stroke:#459EDB;stroke-width:2;stroke-linecap:round;stroke-linejoin:round;stroke-miterlimit:10;}
	.st4{fill:#459EDB;}
</style><g class="st0" id="Grid"/><g id="Home"/><g id="Search"/><g id="Plus"/><g id="Minus"/><g id="Setting"/><g id="People"/><g id="Statistic"/><g id="Left_Arrow"/><g id="Right_Arrow"/><g id="Up_Arrow"/><g id="Bottom_Arrow"/><g id="Attachment"/><g id="Calendar"/><g id="Price"/><g id="News"><g><path class="st2" d="M23,73V14.5c0-0.8,0.7-1.5,1.5-1.5h66.9c0.8,0,1.5,0.7,1.5,1.5v66.9c0,0.8-0.7,1.5-1.5,1.5    C83.6,83,48,83,48,83H23H4.5C3.7,83,3,82.3,3,81.5V39.5C3,38.7,3.7,38,4.5,38H23"/><path class="st2" d="M84.5,38H33.5c-0.8,0-1.5-0.7-1.5-1.5V21.5c0-0.8,0.7-1.5,1.5-1.5h50.9c0.8,0,1.5,0.7,1.5,1.5v14.9    C86,37.3,85.3,38,84.5,38z"/><line class="st2" x1="32" x2="58" y1="48" y2="48"/><line class="st2" x1="32" x2="82" y1="56" y2="56"/><line class="st2" x1="32" x2="74" y1="64" y2="64"/></g></g></svg>