<?xml version="1.0" ?><svg style="enable-background:new 0 0 96 96;" version="1.1" viewBox="0 0 96 96" xml:space="preserve" xmlns="http://www.w3.org/2000/svg" xmlns:xlink="http://www.w3.org/1999/xlink"><style type="text/css">
	.st0{display:none;}
	.st1{display:inline;}
	.st2{fill:none;stroke:#459EDB;stroke-width:2;stroke-linecap:round;stroke-linejoin:round;stroke-miterlimit:10;}
	.st3{display:none;fill:none;stroke:#459EDB;stroke-width:2;stroke-linecap:round;stroke-linejoin:round;stroke-miterlimit:10;}
	.st4{fill:#459EDB;}
</style><g class="st0" id="Grid"/><g id="Home"/><g id="Search"/><g id="Plus"/><g id="Minus"/><g id="Setting"><path class="st2" d="M86,45.3c0.1,2,0.1,3.9,0,5.9c-0.2,2.8,1.2,5.5,3.6,6.8l0.2,0.1c3.2,1.7,4.5,5.5,3.1,8.9l0,0   c-1.4,3.3-5.1,5-8.5,3.9l-0.2-0.1c-2.7-0.8-5.6,0-7.4,2.1c-1.3,1.5-2.7,2.8-4.2,4.1c-2.1,1.8-3,4.7-2.2,7.4l0.1,0.2   c1,3.4-0.7,7.1-4,8.5l0,0c-3.3,1.4-7.2,0-8.8-3.2l-0.1-0.2c-1.3-2.5-4-3.9-6.8-3.7c-2,0.1-3.9,0.1-5.9,0c-2.8-0.2-5.5,1.2-6.8,3.6   l-0.1,0.2c-1.7,3.2-5.5,4.5-8.9,3.1l0,0c-3.3-1.4-5-5.1-3.9-8.5l0.1-0.2c0.8-2.7,0-5.6-2.1-7.4c-1.5-1.3-2.8-2.7-4.1-4.2   c-1.8-2.1-4.7-3-7.4-2.2l-0.2,0.1c-3.4,1-7.1-0.7-8.5-4l0,0c-1.4-3.3,0-7.2,3.2-8.8l0.2-0.1c2.5-1.3,3.9-4,3.7-6.8   c-0.1-2-0.1-3.9,0-5.9c0.2-2.8-1.2-5.5-3.6-6.8l-0.2-0.1c-3.2-1.7-4.5-5.5-3.1-8.9l0,0c1.4-3.3,5.1-5,8.5-3.9l0.2,0.1   c2.7,0.8,5.6,0,7.4-2.1c1.3-1.5,2.7-2.8,4.2-4.1c2.1-1.8,3-4.7,2.2-7.4l-0.1-0.2c-1-3.4,0.7-7.1,4-8.5l0,0c3.3-1.4,7.2,0,8.8,3.2   l0.1,0.2c1.3,2.5,4,3.9,6.8,3.7c2-0.1,3.9-0.1,5.9,0c2.8,0.2,5.5-1.2,6.8-3.6l0.1-0.2c1.7-3.2,5.5-4.5,8.9-3.1l0,0   c3.3,1.4,5,5.1,3.9,8.5l-0.1,0.2c-0.8,2.7,0,5.6,2.1,7.4c1.5,1.3,2.8,2.7,4.1,4.2c1.8,2.1,4.7,3,7.4,2.2l0.2-0.1   c3.4-1,7.1,0.7,8.5,4l0,0c1.4,3.3,0,7.2-3.2,8.8l-0.2,0.1C87.2,39.8,85.8,42.5,86,45.3z"/><circle class="st2" cx="48" cy="48" r="20"/></g><g id="People"/><g id="Statistic"/><g id="Left_Arrow"/><g id="Right_Arrow"/><g id="Up_Arrow"/><g id="Bottom_Arrow"/><g id="Attachment"/><g id="Calendar"/><g id="Price"/><g id="News"/></svg>