<?xml version="1.0" ?><svg style="enable-background:new 0 0 96 96;" version="1.1" viewBox="0 0 96 96" xml:space="preserve" xmlns="http://www.w3.org/2000/svg" xmlns:xlink="http://www.w3.org/1999/xlink"><style type="text/css">
	.st0{display:none;}
	.st1{display:inline;}
	.st2{fill:none;stroke:#459EDB;stroke-width:2;stroke-linecap:round;stroke-linejoin:round;stroke-miterlimit:10;}
	.st3{display:none;fill:none;stroke:#459EDB;stroke-width:2;stroke-linecap:round;stroke-linejoin:round;stroke-miterlimit:10;}
	.st4{fill:#459EDB;}
</style><g class="st0" id="Grid"/><g id="Home"><path class="st2" d="M88.8,47.5h-8.2c-0.8,0-1.5,0.7-1.5,1.5V91c0,0.8-0.7,1.5-1.5,1.5H64c-0.8,0-1.5-0.7-1.5-1.5V65   c0-0.8-0.7-1.5-1.5-1.5H35c-0.8,0-1.5,0.7-1.5,1.5V91c0,0.8-0.7,1.5-1.5,1.5H18.5c-0.8,0-1.5-0.7-1.5-1.5V49c0-0.8-0.7-1.5-1.5-1.5   H7.2c-1.4,0-2-1.6-1.1-2.6L46.9,4.1c0.6-0.6,1.6-0.6,2.2,0l40.8,40.8C90.8,45.9,90.1,47.5,88.8,47.5z"/></g><g id="Search"/><g id="Plus"/><g id="Minus"/><g id="Setting"/><g id="People"/><g id="Statistic"/><g id="Left_Arrow"/><g id="Right_Arrow"/><g id="Up_Arrow"/><g id="Bottom_Arrow"/><g id="Attachment"/><g id="Calendar"/><g id="Price"/><g id="News"/></svg>